# xmcd
#
# Track frame offsets:
#	150
#	17866
#	35149
#	50718
#	68119
#	81835
#	95698
#	107239
#	121088
#	134457
#	143880
#	158505
#	174476
#	196076
#	214268
#	227862
#
# Disc length: 3269 seconds
#
# Revision: 0
# Processed by: cddbd v1.5.2PL0 Copyright (c) Steve Scherf et al.
# Submitted via: EasyCDDAExtractor 11.0.2.1
#
DISCID=e50cc310
DTITLE=Willie Nelson - 16 Biggest Hits Vol.2
DYEAR=2007
DGENRE=Country
TTITLE0=All Of Me
TTITLE1=Me And Paul
TTITLE2=I'd Have To Be Crazy
TTITLE3=Faded Love (feat. Ray Price)
TTITLE4=Heartbreak Hotel (feat. Leon Russell)
TTITLE5=Highwayman (feat. Waylon Jennings, Johnny Cash and Kris Kristofferson)
TTITLE6=Mona Lisa
TTITLE7=There You Are
TTITLE8=Good Hearted Woman (feat. Waylon Jennings)
TTITLE9=Something To Brag About (feat. Mary Kay Place)
TTITLE10=Sweet Memories
TTITLE11=Let It Be Me
TTITLE12=Pancho and Lefty (feat. Merle Haggard)
TTITLE13=Help Me Make It Through The Night
TTITLE14=I Love You A Thousand Ways
TTITLE15=Without A Song
EXTD=
EXTT0=
EXTT1=
EXTT2=
EXTT3=
EXTT4=
EXTT5=
EXTT6=
EXTT7=
EXTT8=
EXTT9=
EXTT10=
EXTT11=
EXTT12=
EXTT13=
EXTT14=
EXTT15=
PLAYORDER=
